<svg id="Layer_1" data-name="Layer 1" xmlns="http://www.w3.org/2000/svg" viewBox="0 0 87.96 96.76"><defs><style>.cls-1{opacity:0.14;}.cls-2{fill:#fff;}</style></defs><g class="cls-1"><path class="cls-2" d="M65.68,12.09C63.59,7.84,64.09,4.26,67,1.8a7.56,7.56,0,0,1,9.52-.22c3.11,2.36,3.72,6,1.69,10.5a8,8,0,0,1,6.91,1.47,7.49,7.49,0,0,1,2.7,4.56,7.68,7.68,0,0,1-4.75,8.44c-3.89,1.47-7.5-.13-10-4.42-.47,2.51,0,3.64,3.17,8.25h-9c2.28-2.42,4-4.94,3.38-8.53-1.17,2.47-2.79,4.27-5.39,4.92a7.57,7.57,0,0,1-9.17-9.62C57.3,13.26,60.8,11.38,65.68,12.09Z"/><path class="cls-2" d="M17.3,86.76c0,2.4.59,3.73,3.26,7.29H10.87c1.81-2.22,3.32-4.46,3.46-7.18a38.38,38.38,0,0,1-4.52,1.81c-3.16.84-6.72-.85-8.65-3.9a7.38,7.38,0,0,1,.51-8.64A13.7,13.7,0,0,1,4.3,73.61,54.65,54.65,0,0,0,14.82,63.19c.18-.22.37-.45.57-.66a2.73,2.73,0,0,1,.38-.25c1.44,1.64,2.8,3.37,4.35,4.93,2,2,4.07,3.81,6.14,5.68.82.75,1.74,1.37,2.54,2.13,4.84,4.51,2.53,11.3-3,13.4a7.84,7.84,0,0,1-6.57-.54C18.64,87.57,18.06,87.2,17.3,86.76Z"/><path class="cls-2" d="M16,5.14a7.46,7.46,0,0,1,.89-1.3A8.47,8.47,0,0,1,28.81,15.91c-3.47,3.53-7,7-10.47,10.56-.82.82-1.6,1.68-2.47,2.61a9.55,9.55,0,0,1-.84-.65C10.91,24.3,6.76,20.21,2.7,16A8.43,8.43,0,0,1,5.82,2a8.25,8.25,0,0,1,8.76,1.82c.35.31.67.65,1,1,0,0,.1,0,.16,0Z"/><path class="cls-2" d="M85.22,78.15A101,101,0,0,0,71.83,96.76,91.4,91.4,0,0,0,58.46,78.17,83.51,83.51,0,0,0,71.82,59.56,119.25,119.25,0,0,0,85.22,78.15Z"/></g></svg>