<svg id="Layer_1" data-name="Layer 1" xmlns="http://www.w3.org/2000/svg" xmlns:xlink="http://www.w3.org/1999/xlink" viewBox="0 0 538 800"><defs><style>.cls-1{fill:#fff;}.cls-2{fill:url(#linear-gradient);}.cls-3{fill:url(#linear-gradient-2);}.cls-4{fill:url(#linear-gradient-3);}.cls-5{fill:url(#linear-gradient-4);}</style><linearGradient id="linear-gradient" x1="20.29" y1="47.58" x2="513.74" y2="47.58" gradientUnits="userSpaceOnUse"><stop offset="0.01" stop-color="#e5af2b"/><stop offset="0.14" stop-color="#ebc23a"/><stop offset="0.26" stop-color="#f1d64b"/><stop offset="0.41" stop-color="#f1d64b"/><stop offset="0.52" stop-color="#f2da50"/><stop offset="0.8" stop-color="#f0d349"/></linearGradient><linearGradient id="linear-gradient-2" x1="113.6" y1="512.88" x2="424.4" y2="512.88" gradientUnits="userSpaceOnUse"><stop offset="0" stop-color="#e5af2b"/><stop offset="0.52" stop-color="#f2da50"/><stop offset="1" stop-color="#e5af2b"/></linearGradient><linearGradient id="linear-gradient-3" x1="77.52" y1="140.6" x2="460.48" y2="140.6" xlink:href="#linear-gradient"/><linearGradient id="linear-gradient-4" x1="112.03" y1="180.35" x2="425.82" y2="180.35" xlink:href="#linear-gradient"/></defs><rect class="cls-1" width="538" height="35.43" rx="12.6"/><rect class="cls-2" x="20.29" y="35.43" width="493.45" height="24.31" rx="7.37"/><polygon class="cls-3" points="424.4 225.77 422.6 800 113.6 800 113.6 225.77 424.4 225.77"/><path class="cls-1" d="M459.09,131.22s4.51,13.87-3.71,18.76-31.15,26.41-31.15,26.41v49.43c-63.45.17-117-.19-163.73,0-90.48.37-147,0-147,0V176.39S90.55,154.83,82.33,150s-3.7-18.76-3.7-18.76c2-32.74-30-71.3-30-71.3,61-.23,148,0,148,0H337s94.56-.42,152.23,0C489.19,59.92,465.8,94,459.09,131.22Z"/><path class="cls-4" d="M78.88,131.22H459.34s4.25,12.89-3.7,18.76h-373c-.33,0-.93-.58-1.17-.77a9.4,9.4,0,0,1-2.27-2.63c-2.05-3.49-1.81-7.79-1.19-11.64C78.17,133.68,78.56,132.46,78.88,131.22Z"/><path class="cls-5" d="M113.14,174.76H424.89s3.48,7.69-3,11.18H116.18a2.67,2.67,0,0,1-1-.46,6.52,6.52,0,0,1-1.86-1.56c-1.68-2.08-1.48-4.65-1-6.94A18.71,18.71,0,0,1,113.14,174.76Z"/><path class="cls-1" d="M154.22,376.48a8.22,8.22,0,0,0-8.19,8.2V800h16.38V384.68A8.22,8.22,0,0,0,154.22,376.48Z"/><path class="cls-1" d="M266.87,376.48a14.39,14.39,0,0,0-14.34,14.34V800h28.68V390.82A14.38,14.38,0,0,0,266.87,376.48Z"/><path class="cls-1" d="M328.32,376.48h0A14.38,14.38,0,0,0,314,390.82V800h28.68V390.82A14.39,14.39,0,0,0,328.32,376.48Z"/><path class="cls-1" d="M205.43,376.48h0a14.38,14.38,0,0,0-14.34,14.34V800h28.67V390.82A14.38,14.38,0,0,0,205.43,376.48Z"/><path class="cls-1" d="M391.81,384.68a8.22,8.22,0,0,0-8.19-8.2h0a8.22,8.22,0,0,0-8.19,8.2V800h16.38Z"/></svg>