<?xml version="1.0" encoding="UTF-8"?>
<svg id="Layer_1" data-name="Layer 1" xmlns="http://www.w3.org/2000/svg" viewBox="0 0 558 1820">
  <defs>
    <style>
      .cls-1 {
        fill: #231f20;
      }

      .cls-2 {
        fill: #f4f2f2;
      }
    </style>
  </defs>
  <path class="cls-1" d="M535.4,10c6.96,0,12.6,5.64,12.6,12.6v10.22c0,6.96-5.64,12.6-12.6,12.6h-19.03c4.07,0,7.37,3.3,7.37,7.37v9.57c0,4.07-3.3,7.37-7.37,7.37h-17.19c-2.57,3.87-23.78,36.56-30.09,71.48,0,0,4.51,13.87-3.7,18.76-8.21,4.85-31.16,26.42-31.16,26.42v41.17h.09l-1.8,1582.43H123.52V235.82s-.03,0-.03,0v-49.43s-22.94-21.57-31.16-26.42c-8.22-4.89-3.7-18.76-3.7-18.76,1.74-29.26-23.57-64.36-28.97-71.48h-22c-4.07,0-7.37-3.3-7.37-7.37v-9.57c0-4.07,3.3-7.37,7.37-7.37h-15.05c-6.96,0-12.6-5.64-12.6-12.6v-10.22c0-6.96,5.64-12.6,12.6-12.6h512.79M535.4,0H22.6C10.14,0,0,10.14,0,22.6v10.22c0,11.68,8.91,21.32,20.29,22.49v7.05c0,9.58,7.79,17.37,17.37,17.37h16.94c12.14,17.07,24.67,41.37,24.1,59.81-2.27,8.27-2.71,22.34,8.52,29.03,4.72,2.79,17.48,14.05,26.27,22.18v55.08h.03v1574.18h328.99v-9.99s1.81-1582.43,1.81-1582.43v-10.01s-.09,0-.09,0v-26.82c8.8-8.13,21.56-19.39,26.24-22.16,10.7-6.37,10.83-19.4,8.88-27.77,5.24-26.21,19.14-50.97,25.33-61.08h11.7c9.58,0,17.37-7.79,17.37-17.37v-6.94h1.66c12.46,0,22.6-10.14,22.6-22.6v-10.22c0-12.46-10.14-22.6-22.6-22.6h0Z"/>
  <rect class="cls-2" x="10" y="10" width="538" height="35.43" rx="12.6" ry="12.6"/>
  <rect class="cls-1" x="30.29" y="45.43" width="493.45" height="24.31" rx="7.37" ry="7.37"/>
  <polygon class="cls-2" points="434.4 213.3 432.6 1810 123.6 1810 123.6 213.3 434.4 213.3"/>
  <path class="cls-2" d="M469.09,141.22s4.51,13.87-3.7,18.76c-8.21,4.85-31.16,26.42-31.16,26.42v49.43c-63.44.16-117.04-.19-163.72,0-90.48.37-147.01,0-147.01,0v-49.43s-22.94-21.57-31.16-26.42c-8.22-4.89-3.7-18.76-3.7-18.76,1.95-32.74-29.98-71.3-29.98-71.3,61.03-.23,147.99,0,147.99,0h140.32s94.56-.42,152.23,0c0,0-23.39,34.1-30.1,71.3Z"/>
  <path class="cls-1" d="M88.88,141.22h380.46s4.25,12.89-3.7,18.76H92.59c-.33,0-.93-.58-1.16-.77-.91-.72-1.69-1.62-2.28-2.63-2.05-3.49-1.8-7.8-1.18-11.64.2-1.26.6-2.48.92-3.72Z"/>
  <path class="cls-1" d="M123.14,184.76h311.75s3.48,7.68-3.03,11.18H126.18c-.27,0-.76-.35-.95-.46-.75-.43-1.38-.97-1.87-1.57-1.68-2.08-1.48-4.65-.97-6.94.17-.75.49-1.48.75-2.22Z"/>
  <g>
    <path class="cls-1" d="M164.46,391.55c-4.51,0-8.19,3.93-8.19,8.74v1361.52c0,4.52,3.67,8.19,8.19,8.19h0c4.52,0,8.19-3.67,8.19-8.19V400.29c0-4.81-3.69-8.74-8.19-8.74Z"/>
    <path class="cls-1" d="M277.12,391.55c-7.89,0-14.34,6.88-14.34,15.29v1358.82c0,7.92,6.42,14.34,14.34,14.34h0c7.92,0,14.34-6.42,14.34-14.34V406.84c0-8.41-6.45-15.29-14.34-15.29Z"/>
    <path class="cls-1" d="M338.56,391.55h0c-7.89,0-14.34,6.88-14.34,15.29v1358.82c0,7.92,6.42,14.34,14.34,14.34h0c7.92,0,14.34-6.42,14.34-14.34V406.84c0-8.41-6.45-15.29-14.34-15.29Z"/>
    <path class="cls-1" d="M215.67,391.55h0c-7.89,0-14.34,6.88-14.34,15.29v1358.82c0,7.92,6.42,14.34,14.34,14.34h0c7.92,0,14.34-6.42,14.34-14.34V406.84c0-8.41-6.45-15.29-14.34-15.29Z"/>
    <path class="cls-1" d="M402.06,400.29c0-4.81-3.69-8.74-8.19-8.74h0c-4.51,0-8.19,3.93-8.19,8.74v1361.52c0,4.52,3.67,8.19,8.19,8.19h0c4.52,0,8.19-3.67,8.19-8.19V400.29Z"/>
  </g>
</svg>