<svg id="Layer_1" data-name="Layer 1" xmlns="http://www.w3.org/2000/svg" viewBox="0 0 558 820"><defs><style>.cls-1{fill:#231f20;}.cls-2{fill:#eaeaea;}</style></defs><path class="cls-1" d="M535.4,10A12.6,12.6,0,0,1,548,22.6V32.83a12.6,12.6,0,0,1-12.6,12.6h-19a7.37,7.37,0,0,1,7.37,7.37v9.75a7.37,7.37,0,0,1-7.37,7.37H499.19s-23.39,34.11-30.1,71.3c0,0,4.51,13.86-3.71,18.76s-31.15,26.41-31.15,26.41v41.44h.19L432.6,810h-309V235.82h-.11V186.39S100.55,164.83,92.33,160s-3.7-18.76-3.7-18.76c2-32.74-30-71.3-30-71.3h-21a7.37,7.37,0,0,1-7.37-7.37V52.8a7.37,7.37,0,0,1,7.37-7.37H22.6A12.6,12.6,0,0,1,10,32.83V22.6A12.6,12.6,0,0,1,22.6,10H535.4m0-10H22.6A22.63,22.63,0,0,0,0,22.6V32.83A22.63,22.63,0,0,0,20.29,55.31v7.24A17.39,17.39,0,0,0,37.66,79.92H53.75c7.19,9.65,25.68,36.79,25,59.62-2.27,8.26-2.72,22.34,8.52,29,4.71,2.78,17.47,14.05,26.27,22.18v55.07h.11V820h329l0-10,1.82-582.16,0-10h-.22V190.75c8.79-8.13,21.55-19.4,26.24-22.16,10.7-6.38,10.83-19.4,8.87-27.78,5.27-26.34,19.32-51.14,25.32-60.89h11.71a17.39,17.39,0,0,0,17.37-17.37V55.43h1.66A22.63,22.63,0,0,0,558,32.83V22.6A22.63,22.63,0,0,0,535.4,0Z"/><rect class="cls-2" x="10" y="10" width="538" height="35.43" rx="12.6"/><rect class="cls-1" x="30.29" y="45.43" width="493.45" height="24.31" rx="7.37"/><polygon class="cls-2" points="434.4 235.77 432.6 810 123.6 810 123.6 235.77 434.4 235.77"/><path class="cls-2" d="M469.09,141.22s4.51,13.86-3.71,18.76-31.15,26.41-31.15,26.41v49.43c-63.45.17-117-.19-163.73,0-90.48.37-147,0-147,0V186.39S100.55,164.83,92.33,160s-3.7-18.76-3.7-18.76c2-32.74-30-71.3-30-71.3,61-.23,148,0,148,0H347s94.56-.42,152.23,0C499.19,69.92,475.8,104,469.09,141.22Z"/><path class="cls-1" d="M88.88,141.22H469.34s4.25,12.89-3.7,18.76h-373c-.33,0-.93-.58-1.17-.77a9.4,9.4,0,0,1-2.27-2.63c-2.05-3.49-1.81-7.79-1.19-11.64C88.17,143.68,88.56,142.46,88.88,141.22Z"/><path class="cls-1" d="M123.14,184.76H434.89s3.48,7.69-3,11.18H126.18a2.67,2.67,0,0,1-1-.46,6.52,6.52,0,0,1-1.86-1.56c-1.68-2.08-1.48-4.65-1-6.94A18.71,18.71,0,0,1,123.14,184.76Z"/><path class="cls-1" d="M164.22,386.48a8.22,8.22,0,0,0-8.19,8.2V810h16.38V394.68A8.22,8.22,0,0,0,164.22,386.48Z"/><path class="cls-1" d="M276.87,386.48a14.39,14.39,0,0,0-14.34,14.34V810h28.68V400.82A14.38,14.38,0,0,0,276.87,386.48Z"/><path class="cls-1" d="M338.32,386.48h0A14.38,14.38,0,0,0,324,400.82V810h28.68V400.82A14.39,14.39,0,0,0,338.32,386.48Z"/><path class="cls-1" d="M215.43,386.48h0a14.38,14.38,0,0,0-14.34,14.34V810h28.67V400.82A14.38,14.38,0,0,0,215.43,386.48Z"/><path class="cls-1" d="M401.81,394.68a8.22,8.22,0,0,0-8.19-8.2h0a8.22,8.22,0,0,0-8.19,8.2V810h16.38Z"/></svg>