<svg id="Layer_1" data-name="Layer 1" xmlns="http://www.w3.org/2000/svg" viewBox="0 0 558 1020"><defs><style>.cls-1{fill:#231f20;}.cls-2{fill:#f4f2f2;}</style></defs><path class="cls-1" d="M535.4,10A12.6,12.6,0,0,1,548,22.6V32.83a12.6,12.6,0,0,1-12.6,12.6h-19a7.37,7.37,0,0,1,7.37,7.37v9.56a7.36,7.36,0,0,1-7.37,7.37H498.66c-3.48,5.43-23.45,37.58-29.57,71.49,0,0,4.51,13.86-3.71,18.76s-31.15,26.41-31.15,26.41V219h.17l-1.8,791h-309V235.82h-.11V186.39S100.55,164.83,92.33,160s-3.7-18.76-3.7-18.76c1.79-30-25.56-65.8-30.08-71.49H37.66a7.36,7.36,0,0,1-7.37-7.37V52.8a7.37,7.37,0,0,1,7.37-7.37H22.6A12.6,12.6,0,0,1,10,32.83V22.6A12.6,12.6,0,0,1,22.6,10H535.4m0-10H22.6A22.63,22.63,0,0,0,0,22.6V32.83A22.63,22.63,0,0,0,20.29,55.31v7A17.39,17.39,0,0,0,37.66,79.73H53.6c7.51,10.21,25.8,37.43,25.09,59.81-2.26,8.27-2.71,22.34,8.53,29,4.71,2.78,17.47,14.05,26.27,22.18v55.07h.11V1020h329l0-10,1.8-791,0-10h-.19V190.75c8.79-8.13,21.55-19.4,26.24-22.16,10.7-6.38,10.83-19.4,8.87-27.78C484.5,115,498.14,90,504.25,79.73h12.12a17.39,17.39,0,0,0,17.37-17.37V55.43h1.66A22.63,22.63,0,0,0,558,32.83V22.6A22.63,22.63,0,0,0,535.4,0Z"/><rect class="cls-2" x="10" y="10" width="538" height="35.43" rx="12.6"/><rect class="cls-1" x="30.29" y="45.43" width="493.45" height="24.31" rx="7.37"/><polygon class="cls-2" points="434.4 235.78 432.6 1010 123.6 1010 123.6 235.78 434.4 235.78"/><path class="cls-2" d="M469.09,141.22s4.51,13.87-3.71,18.76-31.16,26.41-31.16,26.41v49.43c-63.44.17-117-.19-163.72,0-90.48.37-147,0-147,0V186.39S100.55,164.83,92.33,160s-3.7-18.76-3.7-18.76c2-32.74-30-71.3-30-71.3,61-.23,148,0,148,0H347s94.56-.42,152.23,0C499.19,69.92,475.8,104,469.09,141.22Z"/><path class="cls-1" d="M88.88,141.22H469.34s4.25,12.89-3.7,18.76h-373c-.33,0-.93-.58-1.17-.77a9.4,9.4,0,0,1-2.27-2.63c-2.05-3.49-1.81-7.79-1.19-11.64C88.17,143.68,88.56,142.46,88.88,141.22Z"/><path class="cls-1" d="M123.14,184.76H434.89s3.48,7.69-3,11.18H126.18a2.83,2.83,0,0,1-1-.45,6.71,6.71,0,0,1-1.86-1.57c-1.68-2.08-1.48-4.65-1-6.94A18.71,18.71,0,0,1,123.14,184.76Z"/><path class="cls-1" d="M164.46,391.55c-4.5,0-8.19,3.94-8.19,8.74V1010h16.39V400.29C172.66,395.49,169,391.55,164.46,391.55Z"/><path class="cls-1" d="M277.12,391.55c-7.89,0-14.34,6.88-14.34,15.29V1010h28.67V406.84C291.45,398.43,285,391.55,277.12,391.55Z"/><path class="cls-1" d="M338.56,391.55h0c-7.88,0-14.33,6.88-14.33,15.29V1010H352.9V406.84C352.9,398.43,346.45,391.55,338.56,391.55Z"/><path class="cls-1" d="M215.67,391.55h0c-7.89,0-14.34,6.88-14.34,15.29V1010H230V406.84C230,398.43,223.56,391.55,215.67,391.55Z"/><path class="cls-1" d="M402.06,400.29c0-4.8-3.69-8.74-8.19-8.74h0c-4.51,0-8.2,3.94-8.2,8.74V1010h16.39Z"/></svg>